<!DOCTYPE svg PUBLIC "-//W3C//DTD SVG 1.1//EN" "http://www.w3.org/Graphics/SVG/1.1/DTD/svg11.dtd">
<!-- Uploaded to: SVG Repo, www.svgrepo.com, Transformed by: SVG Repo Mixer Tools -->
<svg height="800px" width="800px" version="1.1" id="Layer_1" xmlns="http://www.w3.org/2000/svg" xmlns:xlink="http://www.w3.org/1999/xlink" viewBox="-40.96 -40.96 593.92 593.92" xml:space="preserve" fill="#ffffff" stroke="#ffffff" stroke-width="5.12">
<g id="SVGRepo_bgCarrier" stroke-width="0"/>
<g id="SVGRepo_tracerCarrier" stroke-linecap="round" stroke-linejoin="round"/>
<g id="SVGRepo_iconCarrier"> <path style="fill:#4A5A67;" d="M512,256.006C512,397.402,397.394,512.004,256.004,512C114.606,512.004,0,397.402,0,256.006 C-0.007,114.61,114.606,0,256.004,0C397.394,0,512,114.614,512,256.006z"/> <path style="fill:#444A54;" d="M512,256.005c0-13.922-1.15-27.57-3.289-40.89c-0.261-0.267-0.489-0.569-0.79-0.79 C507.497,213.754,397,103.252,396.433,102.837c-1.317-1.775-3.385-2.892-5.66-2.892H149.6c-3.114,0-5.68,2.034-6.635,4.821 c-0.069-0.055-0.15-0.097-0.223-0.15c-0.416-0.561-15.357-15.501-15.917-15.917c-1.293-1.74-3.263-2.942-5.599-2.942 c-3.921,0-7.093,3.177-7.093,7.093v326.293c0,2.335,1.201,4.306,2.942,5.599c0.416,0.56,79.023,79.167,79.583,79.583 c0.256,0.345,0.583,0.604,0.89,0.89c18.784,4.388,38.335,6.783,58.458,6.783C397.394,512.004,512,397.401,512,256.005z"/> <g> <path style="fill:#F4F6F9;" d="M315.683,192.16l80.105-80.105c2.03-2.03,2.639-5.077,1.538-7.73 c-1.094-2.65-3.685-4.378-6.553-4.378H149.6c-3.921,0-7.093,3.177-7.093,7.093v170.24c0,3.917,3.172,7.093,7.093,7.093h241.173 c2.868,0,5.458-1.728,6.553-4.378c1.102-2.653,0.492-5.701-1.538-7.73L315.683,192.16z M156.692,270.187V114.133h216.956 l-73.011,73.011c-2.771,2.771-2.771,7.26,0,10.031l73.011,73.011H156.692z"/> <path style="fill:#F4F6F9;" d="M121.226,85.76c-3.921,0-7.093,3.177-7.093,7.093v326.293c0,3.917,3.172,7.093,7.093,7.093 s7.093-3.177,7.093-7.093V92.853C128.319,88.937,125.147,85.76,121.226,85.76z"/> </g> </g>
</svg>